HIERARCHY
ROOT hip
{
  OFFSET 0 0 0
  CHANNELS 6 Xposition Yposition Zposition Zrotation Yrotation Xrotation
  JOINT abdomen
  {
    OFFSET 0 20.6881 -0.73152
    CHANNELS 3 Zrotation Xrotation Yrotation
    JOINT chest
    {
      OFFSET 0 11.7043 -0.48768
      CHANNELS 3 Zrotation Xrotation Yrotation
      JOINT neck
      {
        OFFSET 0 22.1894 -2.19456
        CHANNELS 3 Zrotation Xrotation Yrotation
        JOINT head
        {
          OFFSET -0.24384 7.07133 1.2192
          CHANNELS 3 Zrotation Xrotation Yrotation
          JOINT leftEye
          {
            OFFSET 4.14528 8.04674 8.04672
            CHANNELS 3 Zrotation Xrotation Yrotation
            End Site
            {
              OFFSET 1 0 0
            }
          }
          JOINT rightEye
          {
            OFFSET -3.6576 8.04674 8.04672
            CHANNELS 3 Zrotation Xrotation Yrotation
            End Site
            {
              OFFSET 1 0 0
            }
          }
        }
      }
      JOINT rCollar
      {
        OFFSET -2.68224 19.2634 -4.8768
        CHANNELS 3 Zrotation Xrotation Yrotation
        JOINT rShldr
        {
          OFFSET -8.77824 -1.95073 1.46304
          CHANNELS 3 Zrotation Xrotation Yrotation
          JOINT rForeArm
          {
            OFFSET -28.1742 -1.7115 0.48768
            CHANNELS 3 Zrotation Xrotation Yrotation
            JOINT rHand
            {
              OFFSET -22.5879 0.773209 7.07136
              CHANNELS 3 Zrotation Xrotation Yrotation
              JOINT rThumb1
              {
                OFFSET -1.2192 -0.487915 3.41376
                CHANNELS 3 Zrotation Xrotation Yrotation
                JOINT rThumb2
                {
                  OFFSET -3.37035 -0.52449 3.41376
                  CHANNELS 3 Zrotation Xrotation Yrotation
                  End Site
                  {
                    OFFSET -1.78271 -1.18214 1.43049
                  }
                }
              }
              JOINT rIndex1
              {
                OFFSET -7.75947 0.938293 5.60832
                CHANNELS 3 Zrotation Xrotation Yrotation
                JOINT rIndex2
                {
                  OFFSET -2.54057 -0.884171 1.56538
                  CHANNELS 3 Zrotation Xrotation Yrotation
                  End Site
                  {
                    OFFSET -1.62519 -0.234802 1.16502
                  }
                }
              }
              JOINT rMid1
              {
                OFFSET -8.24714 1.18213 3.41376
                CHANNELS 3 Zrotation Xrotation Yrotation
                JOINT rMid2
                {
                  OFFSET -3.10165 -0.590103 1.0647
                  CHANNELS 3 Zrotation Xrotation Yrotation
                  End Site
                  {
                    OFFSET -2.48547 -0.328903 0.83742
                  }
                }
              }
              JOINT rRing1
              {
                OFFSET -8.82822 0.546677 1.51678
                CHANNELS 3 Zrotation Xrotation Yrotation
                JOINT rRing2
                {
                  OFFSET -2.60934 -0.819778 -0.0198488
                  CHANNELS 3 Zrotation Xrotation Yrotation
                  End Site
                  {
                    OFFSET -2.33842 -0.294052 0.168128
                  }
                }
              }
              JOINT rPinky1
              {
                OFFSET -8.27202 -0.0477905 -0.4584
                CHANNELS 3 Zrotation Xrotation Yrotation
                JOINT rPinky2
                {
                  OFFSET -1.82734 -0.647385 -0.700984
                  CHANNELS 3 Zrotation Xrotation Yrotation
                  End Site
                  {
                    OFFSET -1.69225 -0.51767 -0.607171
                  }
                }
              }
            }
          }
        }
      }
      JOINT lCollar
      {
        OFFSET 2.68224 19.2634 -4.8768
        CHANNELS 3 Zrotation Xrotation Yrotation
        JOINT lShldr
        {
          OFFSET 8.77824 -1.95073 1.46304
          CHANNELS 3 Zrotation Xrotation Yrotation
          JOINT lForeArm
          {
            OFFSET 28.1742 -1.7115 0.48768
            CHANNELS 3 Zrotation Xrotation Yrotation
            JOINT lHand
            {
              OFFSET 22.5879 0.773209 7.07136
              CHANNELS 3 Zrotation Xrotation Yrotation
              JOINT lThumb1
              {
                OFFSET 1.2192 -0.487915 3.41376
                CHANNELS 3 Zrotation Xrotation Yrotation
                JOINT lThumb2
                {
                  OFFSET 3.37035 -0.52449 3.41376
                  CHANNELS 3 Zrotation Xrotation Yrotation
                  End Site
                  {
                    OFFSET 1.78271 -1.18214 1.43049
                  }
                }
              }
              JOINT lIndex1
              {
                OFFSET 7.75947 0.938293 5.60832
                CHANNELS 3 Zrotation Xrotation Yrotation
                JOINT lIndex2
                {
                  OFFSET 2.54057 -0.884171 1.56538
                  CHANNELS 3 Zrotation Xrotation Yrotation
                  End Site
                  {
                    OFFSET 1.62519 -0.234802 1.16502
                  }
                }
              }
              JOINT lMid1
              {
                OFFSET 8.24714 1.18213 3.41376
                CHANNELS 3 Zrotation Xrotation Yrotation
                JOINT lMid2
                {
                  OFFSET 3.10165 -0.590103 1.0647
                  CHANNELS 3 Zrotation Xrotation Yrotation
                  End Site
                  {
                    OFFSET 2.48547 -0.328903 0.83742
                  }
                }
              }
              JOINT lRing1
              {
                OFFSET 8.82822 0.546677 1.51678
                CHANNELS 3 Zrotation Xrotation Yrotation
                JOINT lRing2
                {
                  OFFSET 2.60934 -0.819778 -0.0198488
                  CHANNELS 3 Zrotation Xrotation Yrotation
                  End Site
                  {
                    OFFSET 2.33842 -0.294052 0.168128
                  }
                }
              }
              JOINT lPinky1
              {
                OFFSET 8.27202 -0.0477905 -0.4584
                CHANNELS 3 Zrotation Xrotation Yrotation
                JOINT lPinky2
                {
                  OFFSET 1.82734 -0.647385 -0.700984
                  CHANNELS 3 Zrotation Xrotation Yrotation
                  End Site
                  {
                    OFFSET 1.69225 -0.51767 -0.607171
                  }
                }
              }
            }
          }
        }
      }
    }
  }
  JOINT rButtock
  {
    OFFSET -8.77824 4.35084 1.2192
    CHANNELS 3 Zrotation Xrotation Yrotation
    JOINT rThigh
    {
      OFFSET 0 -1.70687 -2.19456
      CHANNELS 3 Zrotation Xrotation Yrotation
      JOINT rShin
      {
        OFFSET 0 -36.8199 0.73152
        CHANNELS 3 Zrotation Xrotation Yrotation
        JOINT rFoot
        {
          OFFSET 0.73152 -45.1104 -5.12064
          CHANNELS 3 Zrotation Xrotation Yrotation
          End Site
          {
            OFFSET -1.1221 -3.69964 12.103
          }
        }
      }
    }
  }
  JOINT lButtock
  {
    OFFSET 8.77824 4.35084 1.2192
    CHANNELS 3 Zrotation Xrotation Yrotation
    JOINT lThigh
    {
      OFFSET 0 -1.70687 -2.19456
      CHANNELS 3 Zrotation Xrotation Yrotation
      JOINT lShin
      {
        OFFSET 0 -36.8199 0.73152
        CHANNELS 3 Zrotation Xrotation Yrotation
        JOINT lFoot
        {
          OFFSET -0.73152 -45.1104 -5.12064
          CHANNELS 3 Zrotation Xrotation Yrotation
          End Site
          {
            OFFSET 1.1221 -3.69964 12.103
          }
        }
      }
    }
  }
}
MOTION
Frames:	9
Frame Time:	0.00833333
1.50153 82.4965 55.5069 -9.3091 -0.9814 11.9201 7.10947 -9.55873 5.251 -2.77287 -7.73753 0.916216 -8.20376 4.84467 -10.1421 17.2694 -2.44322 -18.1368 -0.0 0.0 0.0 -0.0 0.0 0.0 3.23935e-13 -5.96335e-14 6.4605e-15 57.9674 23.7703 31.3032 -27.9813 -30.5022 68.0508 -0.135646 10.4428 1.48428 7.2217e-10 -2.27426e-10 -8.05628e-10 1.24538e-09 -4.26767e-10 -1.40366e-09 7.2217e-10 -2.27423e-10 -8.05638e-10 7.73091 5.47488 0.417314 7.22166e-10 -2.2742e-10 -8.05635e-10 2.90554 0.965183 0.102902 7.22172e-10 -2.27419e-10 -8.05638e-10 10.2786 0.731801 0.0259123 7.22167e-10 -2.27417e-10 -8.05635e-10 2.22167 -0.733487 -0.20892 3.23876e-13 -5.96377e-14 6.26172e-15 -83.2951 54.3837 -3.15345 28.419 -36.5518 -77.937 0.254213 -14.2093 2.03939 3.79392e-10 1.14756e-08 3.00858e-09 6.27057e-10 1.99883e-08 5.20141e-09 3.79387e-10 1.14756e-08 3.00859e-09 -7.73091 5.47488 -0.417314 3.79394e-10 1.14756e-08 3.00859e-09 -2.90554 0.965183 -0.102902 3.79378e-10 1.14756e-08 3.00859e-09 -10.2786 0.731801 -0.0259123 3.794e-10 1.14756e-08 3.00859e-09 -2.22167 -0.733487 0.20892 -2.03217e-16 0.0 -3.88251e-19 4.51917 -6.82875 24.1287 0.0443734 -0.805592 0.341949 -5.82431 -5.48001 -26.7076 2.03217e-16 0.0 3.88251e-19 0.099914 -7.6238 -46.6866 0.045772 12.5798 0.34588 22.4611 -18.6056 59.2925
1.49382 82.5041 55.7209 -9.2401 -0.381 11.5394 7.08543 -9.52622 4.95848 -2.75777 -7.77978 0.832371 -7.88651 4.67597 -9.87469 16.7701 -2.21312 -17.6902 -0.0 0.0 0.0 -0.0 0.0 0.0 3.04166e-13 -9.29046e-14 -1.29773e-14 58.889 26.2072 29.7535 -28.2179 -32.1094 70.9015 -0.129911 10.2185 1.45171 1.01531e-09 3.82963e-10 -9.68267e-10 1.75071e-09 6.16744e-10 -1.68735e-09 1.01531e-09 3.82967e-10 -9.68275e-10 7.73091 5.47488 0.417314 1.01531e-09 3.82968e-10 -9.68271e-10 2.90554 0.965183 0.102902 1.01531e-09 3.82969e-10 -9.68272e-10 10.2786 0.731801 0.0259123 1.01531e-09 3.82971e-10 -9.68266e-10 2.22167 -0.733487 -0.20892 3.04143e-13 -9.29096e-14 -1.31695e-14 -83.5821 54.1251 -2.90485 28.4176 -36.5899 -78.0021 0.254783 -14.2248 2.0417 3.98191e-10 1.35997e-08 3.53241e-09 6.54129e-10 2.36903e-08 6.10736e-09 3.98186e-10 1.35997e-08 3.53242e-09 -7.73091 5.47488 -0.417314 3.98191e-10 1.35997e-08 3.53241e-09 -2.90554 0.965183 -0.102902 3.98179e-10 1.35997e-08 3.53241e-09 -10.2786 0.731801 -0.0259123 3.98199e-10 1.35997e-08 3.5324e-09 -2.22167 -0.733487 0.20892 -2.03217e-16 0.0 -3.88251e-19 4.61623 -6.59483 24.0527 0.043291 -0.831558 0.341098 -5.9273 -5.6159 -26.9084 2.03217e-16 0.0 3.88251e-19 0.244581 -7.49768 -46.565 0.0430811 12.5038 0.330543 21.9898 -18.4353 58.9169
1.48184 82.5022 55.8249 -9.2175 -0.1079 11.4093 7.04689 -9.37346 4.5903 -2.72329 -7.81152 0.730015 -7.5443 4.52925 -9.60066 16.2254 -2.05919 -17.2273 -0.0 0.0 0.0 -0.0 0.0 0.0 2.0964e-13 -9.6905e-14 -3.43866e-14 60.064 28.6825 28.1704 -28.3931 -33.7451 73.3912 -0.124972 10.0245 1.42358 1.1193e-09 7.27436e-10 -1.10988e-09 1.92855e-09 1.21197e-09 -1.93137e-09 1.1193e-09 7.27439e-10 -1.10989e-09 7.73091 5.47488 0.417314 1.1193e-09 7.2744e-10 -1.10988e-09 2.90554 0.965183 0.102902 1.1193e-09 7.2744e-10 -1.10988e-09 10.2786 0.731801 0.0259123 1.1193e-09 7.27442e-10 -1.10987e-09 2.22167 -0.733487 -0.20892 2.09664e-13 -9.69101e-14 -3.45575e-14 -83.8324 53.8639 -2.75359 28.417 -36.6077 -78.032 0.255653 -14.2483 2.04523 3.97911e-10 1.26266e-08 3.34531e-09 6.55097e-10 2.20099e-08 5.78547e-09 3.97906e-10 1.26266e-08 3.34532e-09 -7.73091 5.47488 -0.417314 3.9791e-10 1.26266e-08 3.34531e-09 -2.90554 0.965183 -0.102902 3.97902e-10 1.26266e-08 3.34531e-09 -10.2786 0.731801 -0.0259123 3.97918e-10 1.26266e-08 3.3453e-09 -2.22167 -0.733487 0.20892 -2.03217e-16 0.0 -3.88251e-19 4.73439 -6.17789 24.018 0.0412333 -0.875671 0.338179 -6.07744 -5.79842 -27.2378 2.03217e-16 0.0 3.88251e-19 0.444217 -7.27053 -46.2638 0.03867 12.3885 0.301609 21.1703 -18.1242 58.2614
1.48446 82.4975 55.8823 -9.1954 0.0029 11.306 6.99731 -9.21762 4.25049 -2.70141 -7.84586 0.634774 -7.16805 4.38202 -9.32595 15.6161 -1.88164 -16.7713 -0.0 0.0 0.0 -0.0 0.0 0.0 1.02412e-13 -8.20707e-14 -5.24679e-14 61.4659 31.0897 26.5715 -28.4639 -35.2165 75.6002 -0.121704 9.89601 1.40494 1.12742e-09 9.26813e-10 -1.20314e-09 1.94095e-09 1.56162e-09 -2.09077e-09 1.12742e-09 9.26816e-10 -1.20315e-09 7.73091 5.47488 0.417314 1.12742e-09 9.26816e-10 -1.20314e-09 2.90554 0.965183 0.102902 1.12742e-09 9.26815e-10 -1.20314e-09 10.2786 0.731801 0.0259123 1.12741e-09 9.26817e-10 -1.20313e-09 2.22167 -0.733487 -0.20892 1.02476e-13 -8.20757e-14 -5.26189e-14 -84.0691 53.6397 -2.60948 28.4168 -36.6162 -78.046 0.256227 -14.2638 2.04755 3.89629e-10 1.04043e-08 2.86515e-09 6.45161e-10 1.81561e-08 4.9572e-09 3.89625e-10 1.04043e-08 2.86516e-09 -7.73091 5.47488 -0.417314 3.89627e-10 1.04043e-08 2.86515e-09 -2.90554 0.965183 -0.102902 3.89624e-10 1.04043e-08 2.86515e-09 -10.2786 0.731801 -0.0259123 3.89636e-10 1.04043e-08 2.86514e-09 -2.22167 -0.733487 0.20892 -2.03217e-16 0.0 -3.88251e-19 4.82988 -5.75442 23.9925 0.0393362 -0.91624 0.335507 -6.22298 -5.97026 -27.5534 2.03217e-16 0.0 3.88251e-19 0.616779 -7.03404 -45.9445 0.0346758 12.286 0.272564 20.3766 -17.8106 57.6074
1.45646 82.498 55.9549 -9.3806 0.1666 11.0285 6.93647 -9.17655 4.04236 -2.72413 -7.89593 0.572275 -6.7483 4.21173 -9.05656 14.92 -1.57985 -16.3459 -0.0 0.0 0.0 -0.0 0.0 0.0 4.45383e-14 -5.88377e-14 -6.19214e-14 63.0518 33.3174 24.9749 -28.4261 -36.2996 77.5121 -0.120937 9.86784 1.40085 1.13293e-09 1.10192e-09 -1.22074e-09 1.94998e-09 1.86839e-09 -2.1206e-09 1.13293e-09 1.10192e-09 -1.22074e-09 7.73091 5.47488 0.417314 1.13293e-09 1.10192e-09 -1.22073e-09 2.90554 0.965183 0.102902 1.13293e-09 1.10192e-09 -1.22073e-09 10.2786 0.731801 0.0259123 1.13292e-09 1.10192e-09 -1.22071e-09 2.22167 -0.733487 -0.20892 4.46195e-14 -5.88426e-14 -6.20705e-14 -84.3133 53.4912 -2.38366 28.4165 -36.6265 -78.063 0.255903 -14.2552 2.04626 3.84423e-10 8.78042e-09 2.50978e-09 6.39523e-10 1.53382e-08 4.34399e-09 3.84418e-10 8.78039e-09 2.50978e-09 -7.73091 5.47488 -0.417314 3.8442e-10 8.78041e-09 2.50978e-09 -2.90554 0.965183 -0.102902 3.8442e-10 8.78041e-09 2.50977e-09 -10.2786 0.731801 -0.0259123 3.84429e-10 8.78041e-09 2.50976e-09 -2.22167 -0.733487 0.20892 -2.03217e-16 0.0 -3.88251e-19 4.85934 -5.50061 23.9419 0.038745 -0.931574 0.335394 -6.30927 -6.07593 -27.7126 2.03217e-16 0.0 3.88251e-19 0.684668 -6.88491 -45.7669 0.0334237 12.2484 0.256856 19.9686 -17.6566 57.2293
1.39941 82.455 55.962 -9.6507 0.0384 11.0221 6.87194 -9.31558 4.02427 -2.84343 -8.0006 0.554008 -6.22804 3.99399 -8.80279 14.0243 -1.05989 -15.992 -0.0 0.0 0.0 -0.0 0.0 0.0 7.20758e-14 -1.09431e-14 -6.20445e-14 65.0821 35.3191 23.1531 -28.3602 -37.0024 78.9278 -0.121849 9.85201 1.39885 1.09029e-09 1.13875e-09 -1.07444e-09 1.87839e-09 1.93769e-09 -1.86866e-09 1.09029e-09 1.13875e-09 -1.07445e-09 7.73091 5.47488 0.417314 1.09028e-09 1.13875e-09 -1.07443e-09 2.90554 0.965183 0.102902 1.09029e-09 1.13875e-09 -1.07443e-09 10.2786 0.731801 0.0259123 1.09028e-09 1.13875e-09 -1.07442e-09 2.22167 -0.733487 -0.20892 7.2138e-14 -1.09479e-14 -6.22262e-14 -84.6048 53.444 -1.98676 28.4161 -36.6382 -78.0828 0.253628 -14.1936 2.03704 3.95717e-10 7.8187e-09 2.29625e-09 6.61572e-10 1.36635e-08 3.97508e-09 3.95711e-10 7.81867e-09 2.29625e-09 -7.73091 5.47488 -0.417314 3.95715e-10 7.81869e-09 2.29625e-09 -2.90554 0.965183 -0.102902 3.95715e-10 7.81868e-09 2.29625e-09 -10.2786 0.731801 -0.0259123 3.95723e-10 7.81869e-09 2.29624e-09 -2.22167 -0.733487 0.20892 -2.03217e-16 0.0 -3.88251e-19 4.7934 -5.51721 23.835 0.0402035 -0.907001 0.339065 -6.30911 -6.08745 -27.6441 2.03217e-16 0.0 3.88251e-19 0.608989 -6.89781 -45.7959 0.0366059 12.3107 0.259685 20.1023 -17.7514 57.2273
1.3594 82.3482 55.8274 -9.6791 -0.7578 11.6629 6.80118 -9.56073 4.13088 -3.02762 -8.14109 0.564772 -5.63001 3.74691 -8.55862 12.9738 -0.397108 -15.6869 -0.0 0.0 0.0 -0.0 0.0 0.0 1.45425e-13 6.08306e-14 -5.54268e-14 67.488 37.1349 21.1447 -28.3325 -37.5277 79.8017 -0.124263 9.86231 1.40083 9.73207e-10 1.02162e-09 -8.05801e-10 1.67991e-09 1.74429e-09 -1.40567e-09 9.73211e-10 1.02161e-09 -8.05809e-10 7.73091 5.47488 0.417314 9.73207e-10 1.02161e-09 -8.05799e-10 2.90554 0.965183 0.102902 9.7321e-10 1.02161e-09 -8.05799e-10 10.2786 0.731801 0.0259123 9.73199e-10 1.02161e-09 -8.05791e-10 2.22167 -0.733487 -0.20892 1.45444e-13 6.08258e-14 -5.56628e-14 -84.9232 53.4709 -1.486 28.4158 -36.6465 -78.0969 0.25006 -14.0959 2.02243 4.14114e-10 6.67666e-09 2.03317e-09 6.96755e-10 1.16701e-08 3.52007e-09 4.14107e-10 6.67664e-09 2.03318e-09 -7.73091 5.47488 -0.417314 4.14114e-10 6.67666e-09 2.03317e-09 -2.90554 0.965183 -0.102902 4.14112e-10 6.67664e-09 2.03317e-09 -10.2786 0.731801 -0.0259123 4.1412e-10 6.67666e-09 2.03316e-09 -2.22167 -0.733487 0.20892 -2.03217e-16 0.0 -3.88251e-19 4.66006 -5.69273 23.6967 0.0429482 -0.857053 0.345083 -6.25508 -6.03921 -27.435 2.03217e-16 0.0 3.88251e-19 0.437973 -7.00571 -45.9386 0.0426289 12.4382 0.273343 20.5629 -17.9989 57.4459
1.45671 82.3789 55.9524 -9.3439 -0.2991 11.3803 6.70685 -9.82121 4.2796 -3.18324 -8.24404 0.590157 -5.06445 3.51172 -8.30561 11.981 0.255559 -15.3583 -0.0 0.0 0.0 -0.0 0.0 0.0 2.13158e-13 1.20478e-13 -4.17071e-14 69.677 38.7959 19.4042 -28.3289 -37.9031 80.3076 -0.130159 10.0865 1.43339 9.03905e-10 1.01878e-09 -5.82145e-10 1.56303e-09 1.74495e-09 -1.021e-09 9.03911e-10 1.01877e-09 -5.82153e-10 7.73091 5.47488 0.417314 9.03907e-10 1.01877e-09 -5.82146e-10 2.90554 0.965183 0.102902 9.0391e-10 1.01877e-09 -5.82148e-10 10.2786 0.731801 0.0259123 9.03899e-10 1.01877e-09 -5.82144e-10 2.22167 -0.733487 -0.20892 2.13128e-13 1.20474e-13 -4.19913e-14 -85.1993 53.533 -1.02839 28.4155 -36.6557 -78.1124 0.247111 -14.0142 2.01022 4.16454e-10 5.8429e-09 1.8257e-09 7.03361e-10 1.02124e-08 3.16098e-09 4.16447e-10 5.84289e-09 1.82571e-09 -7.73091 5.47488 -0.417314 4.16456e-10 5.8429e-09 1.8257e-09 -2.90554 0.965183 -0.102902 4.16451e-10 5.84287e-09 1.8257e-09 -10.2786 0.731801 -0.0259123 4.1646e-10 5.8429e-09 1.82569e-09 -2.22167 -0.733487 0.20892 -2.03217e-16 0.0 -3.88251e-19 4.50304 -5.88456 23.5762 0.0458712 -0.80384 0.35177 -6.181 -5.97015 -27.1791 2.03217e-16 0.0 3.88251e-19 0.227533 -7.09593 -46.1161 0.0489793 12.578 0.291885 21.1486 -18.294 57.772
1.50612 82.3638 55.991 -9.137 -0.2635 11.2803 6.56964 -10.0064 4.38742 -3.21706 -8.23608 0.615712 -4.64203 3.32965 -8.02514 11.2593 0.745052 -14.9318 -0.0 0.0 0.0 -0.0 0.0 0.0 2.23849e-13 1.31995e-13 -2.05245e-14 71.0029 40.3555 18.4295 -28.3203 -38.1336 80.638 -0.14284 10.7122 1.52347 1.00459e-09 1.39851e-09 -5.70789e-10 1.73627e-09 2.3964e-09 -1.004e-09 1.00459e-09 1.3985e-09 -5.70798e-10 7.73091 5.47488 0.417314 1.00459e-09 1.3985e-09 -5.70792e-10 2.90554 0.965183 0.102902 1.00459e-09 1.3985e-09 -5.70796e-10 10.2786 0.731801 0.0259123 1.00458e-09 1.3985e-09 -5.70795e-10 2.22167 -0.733487 -0.20892 2.23779e-13 1.31991e-13 -2.08227e-14 -85.3609 53.5937 -0.763268 28.415 -36.67 -78.1364 0.246612 -14.0007 2.0082 3.79577e-10 5.806e-09 1.77901e-09 6.3968e-10 1.01449e-08 3.07984e-09 3.79569e-10 5.80599e-09 1.77902e-09 -7.73091 5.47488 -0.417314 3.7958e-10 5.806e-09 1.77901e-09 -2.90554 0.965183 -0.102902 3.79574e-10 5.80597e-09 1.77901e-09 -10.2786 0.731801 -0.0259123 3.79582e-10 5.806e-09 1.779e-09 -2.22167 -0.733487 0.20892 -2.03217e-16 0.0 -3.88251e-19 4.36776 -5.94935 23.522 0.0478793 -0.769474 0.357447 -6.11983 -5.9198 -26.9703 2.03217e-16 0.0 3.88251e-19 0.0352063 -7.05748 -46.2491 0.0532436 12.6772 0.309343 21.6539 -18.5357 58.0892
